<?xml version="1.0" encoding="UTF-8"?>
<svg xmlns="http://www.w3.org/2000/svg" width="1080" height="1080" viewBox="0 0 1080 1080">
  <path d="M 539.00 0.00 L 487.00 44.00 L 426.00 12.00 L 384.00 66.00 L 319.00 47.00 L 289.00 108.00 L 221.00 103.00 L 204.00 169.00 L 136.00 179.00 L 134.00 246.00 L 70.00 269.00 L 82.00 336.00 L 23.00 373.00 L 49.00 436.00 L 0.00 483.00 L 38.00 538.00 L 0.00 596.00 L 49.00 643.00 L 23.00 706.00 L 82.00 743.00 L 70.00 810.00 L 134.00 833.00 L 137.00 901.00 L 204.00 910.00 L 221.00 976.00 L 289.00 971.00 L 319.00 1032.00 L 384.00 1013.00 L 426.00 1067.00 L 487.00 1035.00 L 540.00 1079.00 L 592.00 1035.00 L 653.00 1067.00 L 695.00 1013.00 L 760.00 1032.00 L 790.00 971.00 L 858.00 976.00 L 875.00 910.00 L 943.00 900.00 L 945.00 833.00 L 1009.00 810.00 L 997.00 743.00 L 1055.00 707.00 L 1030.00 643.00 L 1079.00 595.00 L 1041.00 538.00 L 1079.00 483.00 L 1030.00 436.00 L 1056.00 373.00 L 997.00 336.00 L 1009.00 269.00 L 945.00 246.00 L 942.00 178.00 L 875.00 169.00 L 858.00 103.00 L 790.00 108.00 L 760.00 47.00 L 695.00 66.00 L 653.00 12.00 L 592.00 44.00 Z" fill="#000000" fill-rule="evenodd"/>
</svg>
