<svg xmlns="http://www.w3.org/2000/svg" fill="none" viewBox="0 0 793 418" height="418" width="793">
<path fill="black" d="M116.536 172.277C114.513 175.039 112.744 177.611 111.227 180.003V271.218C111.227 277.209 113.25 282.472 117.294 287.018L118.81 288.454C122.855 292.531 127.784 294.913 133.608 295.641V296H60V295.641C66.0664 294.923 71.0059 292.531 74.7974 288.454L76.314 287.018C80.3583 282.472 82.3804 277.209 82.3804 271.218V74.7824C81.8643 69.2797 79.4736 64.4847 75.1765 60.4174C70.869 56.3501 65.8136 53.838 60 52.881V52.1632H126.014L111.217 67.6049V169.955C116.019 163.495 121.78 156.068 128.479 147.684C135.177 139.31 142.381 130.687 150.101 121.825C157.81 112.973 165.846 104.23 174.198 95.6072C182.55 86.9842 190.828 79.3282 199.043 72.6192C207.258 65.9202 215.23 60.4772 222.95 56.2803C230.66 52.0935 237.811 50 244.393 50L256.916 70.4659C246.542 70.4659 237 71.6722 228.269 74.0647C219.538 76.4572 211.323 79.7569 203.603 83.9438C195.883 88.1307 188.669 92.9755 181.971 98.4882C175.262 104.001 168.753 109.863 162.434 116.083L143.466 137.636C142.95 138.114 142.581 138.533 142.328 138.892C142.076 139.251 141.696 139.669 141.191 140.148L240.602 249.675C246.921 256.863 252.482 262.904 257.295 267.808C262.098 272.713 266.595 276.91 270.765 280.379C274.936 283.848 278.98 286.789 282.909 289.171C286.827 291.564 291.187 293.837 296 296H241.739L122.981 163.116C120.706 166.465 118.547 169.526 116.525 172.277H116.536Z"></path>
<path fill="black" d="M371 297H298V296.64C304.047 295.919 309.098 293.398 313.129 289.066L314.263 287.985C318.295 283.422 320.321 278.019 320.321 271.766V162.914C320.321 148.976 315.407 136.96 305.57 126.864L348.689 115.688V272.126C348.689 278.129 350.705 283.422 354.737 287.985L356.249 289.426C360.028 293.518 364.942 295.909 371 296.64V297ZM331.671 91.544L314.274 67.3904C314.274 62.3475 315.848 58.0151 319.009 54.4131C322.158 50.801 326.379 49 331.681 49C336.983 49 341.193 50.801 344.353 54.4131C347.503 58.0151 349.078 62.3475 349.078 67.3904L331.681 91.544H331.671Z"></path>
<path fill="black" d="M605.835 274.092C611.636 274.092 619.712 273.972 630.062 273.733C640.411 273.493 651.635 273.793 663.754 274.631C675.862 275.48 688.107 277.098 700.478 279.495C712.839 281.891 724.137 285.676 734.36 290.829C744.573 295.991 752.901 302.822 759.345 311.34C765.778 319.848 769 330.583 769 343.535C769 355.767 766.473 366.502 761.409 375.729C756.344 384.966 749.332 392.755 740.362 399.117C731.381 405.468 720.767 410.211 708.501 413.327C696.235 416.442 682.769 418 668.102 418C653.436 418 639.895 415.603 628.272 410.8C616.637 405.997 606.14 399.945 596.79 392.636C587.43 385.316 578.891 377.227 571.195 368.36C563.488 359.482 556.086 350.964 549 342.816C541.925 334.657 534.839 327.347 527.763 320.876C520.688 314.406 513.097 309.962 505 307.565H545.589C551.906 310.441 557.602 314.995 562.656 321.236C567.72 327.467 572.764 334.427 577.828 342.107C582.882 349.786 588.125 357.695 593.569 365.853C599.001 374.002 605.192 381.441 612.152 388.152C619.101 394.862 627.135 400.385 636.231 404.699C645.339 409.013 655.952 411.17 668.092 411.17C680.231 411.17 691.287 409.552 700.52 406.306C709.754 403.071 717.461 398.567 723.652 392.815C729.854 387.063 734.529 380.223 737.687 372.314C740.846 364.395 742.425 355.767 742.425 346.411C742.425 334.178 739.635 323.982 734.076 315.834C728.506 307.675 721.368 301.084 712.639 296.041C703.921 291.008 694.182 287.234 683.432 284.707C672.682 282.191 662.132 280.513 651.761 279.674C641.391 278.835 631.778 278.536 622.933 278.776C614.079 279.015 607.246 279.375 602.455 279.854L597.896 277.697L614.963 245.682C603.834 238.972 594.99 230.453 588.409 220.138C581.829 209.832 578.554 198.558 578.554 186.325C578.554 176.25 580.766 166.783 585.188 157.905C589.61 149.038 595.674 141.309 603.392 134.698C611.099 128.107 620.08 122.885 630.325 119.05C640.569 115.215 651.625 113.298 663.512 113.298C666.039 113.298 668.502 113.428 670.903 113.658C673.303 113.897 675.651 114.257 677.926 114.736C683.485 107.067 689.055 100.766 694.614 95.8526C700.173 90.9395 705.743 87.8838 711.302 86.6755C715.598 85.7168 719.462 85.1776 722.873 85.0577C726.285 84.9379 729.254 85.0078 731.791 85.2375C734.571 85.4772 736.971 85.9565 739.003 86.6755V101.425C736.476 99.7471 733.823 98.3091 731.033 97.1008C728.506 95.9025 725.663 94.824 722.505 93.8654C719.336 92.9067 715.871 92.4274 712.071 92.4274C707.269 92.4274 702.331 94.4645 697.278 98.5388C692.213 102.623 687.159 108.135 682.106 115.086C691.708 117.003 700.563 120.118 708.659 124.432C716.756 128.746 723.768 134.029 729.706 140.26C735.645 146.501 740.33 153.571 743.741 161.48C747.153 169.399 748.858 177.668 748.858 186.306C748.858 196.381 746.647 205.788 742.236 214.546C737.824 223.304 731.707 230.973 723.873 237.573C716.051 244.174 706.975 249.387 696.635 253.221C686.285 257.066 675.314 258.973 663.712 258.973C655.636 258.973 647.876 257.955 640.432 255.918C632.989 253.881 625.987 251.184 619.438 247.829L605.814 274.092H605.835ZM610.067 186.325C610.067 194.234 611.099 201.734 613.184 208.804C615.258 215.884 618.017 222.295 621.438 228.047C624.723 219.419 628.387 210.302 632.441 200.705C636.484 191.119 640.79 181.522 645.339 171.926C649.887 162.339 654.625 153.042 659.563 144.045C664.491 135.048 669.618 126.719 674.925 119.04C672.914 118.561 671.029 118.201 669.26 117.962C667.502 117.722 665.617 117.602 663.606 117.602C656.32 117.602 649.403 119.399 642.865 122.994C636.326 126.599 630.609 131.512 625.713 137.744C620.807 143.975 616.974 151.235 614.216 159.503C611.447 167.772 610.067 176.719 610.067 186.306V186.325ZM678.336 120.488C673.272 128.167 668.218 136.675 663.164 146.032C658.1 155.379 653.299 165.095 648.75 175.171C644.202 185.247 639.832 195.263 635.663 205.209C631.493 215.165 627.756 224.462 624.471 233.09C629.525 239.81 635.41 245.083 642.117 248.918C648.813 252.762 655.962 254.669 663.543 254.669C671.124 254.669 678.147 252.872 684.601 249.267C691.045 245.672 696.741 240.819 701.668 234.698C706.596 228.576 710.449 221.326 713.239 212.938C716.019 204.54 717.409 195.662 717.409 186.315C717.409 178.397 716.461 170.907 714.566 163.827C712.671 156.757 709.954 150.336 706.406 144.584C702.858 138.832 698.688 133.919 693.887 129.835C689.076 125.761 683.895 122.635 678.336 120.478V120.488Z"></path>
<path fill="black" d="M553.836 289.413L552.699 287.968C548.648 283.391 546.501 278.092 546.248 272.061V228.214C546.396 227.04 546.511 225.856 546.606 224.662V167.196C543.88 130.204 511.573 101 472.1 101H470.521C429.259 101 395.804 132.904 395.804 172.254V208.203L395.362 271.69C395.362 277.962 393.342 283.381 389.301 287.958L388.164 289.403C384.376 293.508 379.314 295.906 373 296.639V297H446.675V296.639C440.571 295.916 435.615 293.508 431.805 289.403L430.279 287.958C426.754 283.994 424.755 279.467 424.291 274.409V259.657C424.26 258.954 424.218 258.252 424.218 257.549V155.184C424.218 130.796 444.949 111.026 470.521 111.026C496.093 111.026 516.825 130.796 516.825 155.184V257.549C516.825 258.342 516.793 259.135 516.751 259.928V276.517C516.846 276.447 516.951 276.366 517.046 276.296C516.288 280.652 514.425 284.535 511.437 287.948L509.942 289.393C506.196 293.497 501.313 295.896 495.325 296.629V296.99H569V296.629C562.675 295.906 557.624 293.497 553.836 289.393V289.413Z"></path>
<path fill="black" d="M552.022 40.9461C562.975 54.5982 548.642 66.7511 533.403 63.8627C517.321 60.8245 515.794 43.8944 526.726 36.9784L520.807 21.2976L508.77 35.1995C517.016 52.9491 505.895 62.8433 488.508 54.0685C483.548 51.5699 479.862 47.2724 479.746 41.176C479.493 28.3635 490.425 22.227 490.425 22.227L472.5 0.73957V0L472.195 0.369787L471.879 0V0.73957H471.889L453.965 22.227C453.965 22.227 464.886 28.3635 464.644 41.176C464.528 47.2724 460.842 51.5699 455.882 54.0685C438.505 62.8333 427.384 52.9491 435.62 35.1995L423.582 21.2976L417.664 36.9784C428.585 43.8944 427.068 60.8245 410.987 63.8627C395.748 66.7411 381.426 54.5882 392.368 40.9461L372.39 27.6139L372 36.049L392.052 116.022C392.052 116.022 392.083 116.022 392.104 116.022C403.615 88.6383 434.229 69.0297 470.247 69.0297H472.005C509.707 69.0297 541.522 90.5072 551.654 119.92L552.117 120L571.726 33.2306L572 27.6139L552.022 40.9461Z"></path>
</svg>
