<svg xmlns="http://www.w3.org/2000/svg" xmlns:xlink="http://www.w3.org/1999/xlink" width="1080" zoomAndPan="magnify" viewBox="0 0 810 809.999993" height="1080" preserveAspectRatio="xMidYMid meet" version="1.0"><defs><clipPath id="2562313174"><path d="M 810 245.015625 C 804.628906 94.238281 716.179688 0 600.464844 0 C 512.578125 0.00390625 431.136719 63.285156 397.046875 153.007812 C 364.265625 63.289062 285.972656 0 201.464844 0 C 90.199219 0 5.167969 94.238281 0 245.015625 C 0 558.207031 200.8125 711.84375 397.046875 810 C 601.152344 711.84375 810 558.246094 810 245.015625 Z M 810 245.015625 " clip-rule="nonzero"/></clipPath><clipPath id="45484b89e1"><path d="M 0 0 L 810 0 L 810 810 L 0 810 Z M 0 0 " clip-rule="nonzero"/></clipPath><clipPath id="6e9b432f46"><path d="M 810 245.015625 C 804.628906 94.238281 716.179688 0 600.464844 0 C 512.578125 0.00390625 431.136719 63.285156 397.046875 153.007812 C 364.265625 63.289062 285.972656 0 201.464844 0 C 90.199219 0 5.167969 94.238281 0 245.015625 C 0 558.207031 200.8125 711.84375 397.046875 810 C 601.152344 711.84375 810 558.246094 810 245.015625 Z M 810 245.015625 " clip-rule="nonzero"/></clipPath><clipPath id="ee94ed24c1"><rect x="0" width="810" y="0" height="810"/></clipPath></defs><g clip-path="url(#2562313174)"><g transform="matrix(1, 0, 0, 1, 0, 0.000000000000039746)"><g clip-path="url(#ee94ed24c1)"><g clip-path="url(#45484b89e1)"><g clip-path="url(#6e9b432f46)"><rect x="-178.2" width="1166.4" fill="#000000" height="1166.39999" y="-178.199998" fill-opacity="1"/></g></g></g></g></g></svg>