<?xml version="1.0" standalone="no"?>
<!DOCTYPE svg PUBLIC "-//W3C//DTD SVG 20010904//EN"
 "http://www.w3.org/TR/2001/REC-SVG-20010904/DTD/svg10.dtd">
<svg version="1.0" xmlns="http://www.w3.org/2000/svg"
 width="512.000000pt" height="512.000000pt" viewBox="0 0 512.000000 512.000000"
 preserveAspectRatio="xMidYMid meet">
<g transform="translate(0.000000,512.000000) scale(0.100000,-0.100000)"
fill="#000000" stroke="none">
<path d="M3732 5103 c6 -8 17 -12 25 -9 7 3 13 2 13 -3 0 -4 17 -13 39 -19 21
-7 44 -19 51 -27 7 -8 18 -15 25 -15 31 0 175 -186 158 -204 -3 -3 -1 -12 6
-20 13 -16 48 -131 57 -186 3 -19 6 -87 6 -150 1 -199 -17 -293 -84 -425 -38
-74 -47 -87 -61 -78 -6 3 -7 1 -3 -5 4 -7 -7 -26 -26 -44 -46 -46 -83 -76 -74
-60 5 8 -9 3 -30 -11 -22 -13 -45 -22 -53 -19 -8 2 -11 1 -8 -4 3 -5 -73 -8
-175 -7 l-180 2 -28 -31 c-16 -17 -27 -34 -25 -37 2 -4 -10 -26 -26 -49 -16
-24 -24 -40 -17 -36 7 4 6 -1 -3 -12 -9 -10 -28 -40 -43 -66 -22 -38 -25 -51
-16 -67 11 -21 15 -21 770 -22 418 -1 765 -3 770 -4 6 -1 14 -3 20 -4 6 -1 10
-444 10 -1269 l0 -1268 -477 -478 c-292 -292 -468 -476 -453 -471 14 4 232
213 493 473 l467 467 0 1272 0 1272 -26 20 c-26 21 -33 21 -790 21 -420 0
-764 2 -764 4 0 2 31 59 68 127 l69 124 194 5 c180 5 197 7 239 29 25 13 58
35 74 48 79 66 157 202 190 330 38 147 38 374 0 516 -41 154 -141 305 -240
363 -50 29 -162 50 -142 27z"/>
<path d="M2442 5084 c-106 -53 -204 -195 -254 -369 -20 -71 -23 -101 -22 -265
0 -173 2 -191 28 -275 35 -116 78 -196 143 -265 64 -69 136 -110 208 -117 30
-3 55 -7 55 -8 0 -2 -31 -58 -68 -126 l-69 -124 -631 -5 -632 -5 -470 -470
-470 -470 0 -1271 c0 -1001 3 -1273 13 -1286 6 -8 22 -18 34 -21 19 -4 20 -3
10 14 -6 10 -15 19 -19 19 -5 0 -8 572 -8 1270 l0 1270 50 49 c27 27 46 51 43
55 -3 3 0 6 8 6 16 0 80 66 71 74 -3 3 1 6 9 6 16 0 80 66 71 74 -3 3 1 6 9 6
16 0 80 66 71 74 -3 3 1 6 8 6 17 0 241 225 233 234 -4 3 0 6 8 6 16 0 80 66
71 74 -3 3 1 6 9 6 16 0 80 66 71 74 -3 3 1 6 8 6 8 0 47 34 87 75 40 42 84
80 99 85 15 6 263 10 637 10 596 1 644 3 644 30 0 18 16 50 25 50 6 0 8 3 5 7
-4 3 1 12 11 20 9 8 11 11 4 8 -8 -4 2 16 22 44 20 28 36 57 36 65 0 8 5 18
10 21 14 9 12 52 -2 62 -12 7 -37 12 -85 16 -13 1 -23 5 -23 9 0 5 -3 7 -7 6
-14 -4 -53 13 -53 23 0 5 -7 9 -15 9 -8 0 -15 5 -15 12 0 6 -3 9 -6 6 -3 -3
-22 13 -43 35 -44 49 -110 144 -92 132 8 -5 7 1 -2 16 -50 77 -77 215 -78 393
0 151 22 256 82 391 27 61 87 137 102 128 5 -3 7 -2 4 4 -8 13 73 79 91 75 8
-2 11 1 7 8 -4 6 -1 11 6 9 27 -3 45 1 65 16 18 13 17 14 -17 15 -19 0 -58
-12 -87 -26z"/>
<path d="M2255 5021 c-3 -5 -2 -12 3 -15 5 -3 9 1 9 9 0 17 -3 19 -12 6z"/>
<path d="M2523 4990 c-24 -10 -43 -16 -43 -12 0 4 -25 -19 -55 -51 -30 -32
-55 -64 -55 -71 0 -7 -7 -19 -15 -26 -8 -7 -12 -16 -9 -21 3 -5 1 -9 -4 -9 -5
0 -12 -10 -15 -22 -3 -13 -15 -58 -26 -100 -22 -81 -34 -320 -19 -383 18 -73
30 -121 36 -135 7 -19 9 -28 11 -41 0 -5 5 -7 11 -4 5 3 7 0 4 -8 -3 -8 2 -20
11 -27 8 -7 15 -19 15 -26 0 -8 14 -28 30 -46 17 -17 30 -36 30 -41 0 -6 3 -7
6 -4 4 4 14 -2 23 -12 45 -51 47 -51 540 -51 357 0 462 3 468 13 10 16 11 57
1 51 -8 -5 -12 11 -8 31 1 5 -2 7 -6 2 -10 -10 -60 83 -85 158 -26 78 -51 266
-44 330 3 28 7 72 10 98 3 27 10 67 16 90 6 23 13 53 16 67 5 25 69 161 98
210 14 23 13 26 -6 43 -20 16 -56 17 -458 17 -409 0 -439 -2 -478 -20z m919
-37 c-180 -255 -186 -722 -13 -979 17 -25 31 -46 31 -47 0 -1 -211 0 -468 3
l-468 5 -41 27 c-76 50 -147 188 -173 334 -16 91 -8 307 15 389 36 130 117
249 189 281 25 10 127 13 489 14 l458 0 -19 -27z"/>
<path d="M3395 4949 c-4 -6 -5 -12 -2 -15 2 -3 7 2 10 11 7 17 1 20 -8 4z"/>
<path d="M2473 4915 c4 -5 0 -16 -9 -26 -14 -16 -14 -17 2 -15 20 3 28 33 11
43 -7 3 -9 2 -4 -2z"/>
<path d="M2535 4900 c-3 -6 1 -7 9 -4 18 7 21 14 7 14 -6 0 -13 -4 -16 -10z"/>
<path d="M2386 4746 c6 -15 4 -17 -6 -11 -9 6 -11 4 -5 -4 5 -9 10 -10 18 -2
8 8 7 14 -2 24 -10 10 -11 8 -5 -7z"/>
<path d="M3222 4555 c0 -16 2 -22 5 -12 2 9 2 23 0 30 -3 6 -5 -1 -5 -18z"/>
<path d="M3214 4435 c0 -49 1 -71 3 -48 2 23 2 64 0 90 -2 26 -3 8 -3 -42z"/>
<path d="M2385 4229 c-4 -6 -5 -12 -2 -15 2 -3 7 2 10 11 7 17 1 20 -8 4z"/>
<path d="M3245 4170 c-3 -5 -1 -10 4 -10 6 0 11 5 11 10 0 6 -2 10 -4 10 -3 0
-8 -4 -11 -10z"/>
<path d="M2446 4072 c-3 -5 1 -9 9 -9 8 0 12 4 9 9 -3 4 -7 8 -9 8 -2 0 -6 -4
-9 -8z"/>
<path d="M2482 4005 c7 -7 790 -7 797 0 2 3 -177 5 -399 5 -222 0 -401 -2
-398 -5z"/>
<path d="M3678 4999 c-47 -22 -85 -44 -98 -58 -38 -42 -80 -101 -80 -114 0 -7
-9 -23 -19 -34 -11 -12 -18 -23 -15 -26 3 -2 -2 -22 -10 -43 -26 -69 -36 -143
-36 -270 0 -176 29 -285 113 -430 17 -30 73 -84 87 -84 6 0 8 -4 5 -10 -4 -6
1 -7 11 -3 11 4 15 2 11 -4 -8 -13 25 -23 78 -23 45 0 108 30 145 69 31 32 85
113 82 124 -1 4 3 7 9 7 5 0 7 5 4 10 -3 6 -1 10 5 10 6 0 9 4 6 9 -3 5 1 25
9 45 57 137 57 442 -1 571 -10 22 -18 42 -19 45 -2 13 -39 77 -54 94 -13 16
-13 18 -1 11 8 -4 -7 13 -35 38 -62 56 -152 86 -197 66z m142 -54 c125 -87
208 -352 181 -580 -32 -274 -153 -449 -298 -432 -153 17 -277 290 -259 572 12
208 86 377 195 447 59 38 120 35 181 -7z"/>
<path d="M3773 4938 c1 -7 -4 -12 -11 -10 -8 1 -11 -2 -7 -8 5 -8 11 -8 21 1
7 6 11 15 8 20 -8 13 -14 11 -11 -3z"/>
<path d="M3648 4876 c-170 -118 -169 -729 1 -843 106 -71 214 16 258 209 22
99 22 327 0 426 -33 144 -92 222 -174 229 -39 4 -55 0 -85 -21z m119 -17 c29
-11 65 -43 57 -52 -2 -2 2 -10 11 -17 8 -7 15 -23 15 -37 0 -14 4 -21 10 -18
10 6 14 -20 11 -57 -1 -10 2 -18 8 -18 6 0 8 -7 5 -15 -4 -8 -1 -21 4 -28 19
-23 12 -291 -10 -381 -21 -85 -76 -182 -111 -195 -39 -15 -91 -3 -117 27 -50
58 -60 72 -60 88 0 8 -4 24 -10 34 -5 10 -12 37 -15 60 -3 23 -7 45 -10 50 -6
10 -7 269 -1 300 3 14 8 46 12 73 4 26 11 47 17 47 6 0 7 3 4 7 -7 7 37 87 62
114 29 30 71 36 118 18z"/>
<path d="M3701 4760 c-36 -49 -51 -116 -60 -260 -5 -74 -7 -138 -5 -141 1 -3
6 -28 10 -55 14 -109 69 -201 96 -163 21 30 48 95 48 117 0 12 4 22 10 22 6 0
8 65 7 168 -2 148 -5 176 -27 241 -16 48 -31 76 -42 79 -10 2 -15 8 -12 13 13
21 -4 6 -25 -21z m64 -107 c37 -141 25 -377 -24 -471 l-19 -37 -17 39 c-59
140 -59 402 0 542 l16 39 15 -27 c7 -14 21 -53 29 -85z"/>
<path d="M2994 3810 c-212 -4 -243 -7 -258 -22 -10 -10 -14 -18 -9 -18 4 0 4
-4 -2 -8 -5 -4 -26 -38 -45 -77 -19 -38 -41 -74 -48 -78 -7 -5 -10 -12 -7 -18
4 -5 1 -9 -4 -9 -6 0 -11 -8 -11 -19 0 -10 -7 -24 -15 -31 -8 -7 -15 -22 -15
-33 0 -11 -3 -17 -6 -14 -4 3 -23 -26 -44 -66 -20 -40 -49 -92 -63 -117 -14
-25 -40 -73 -58 -107 -48 -95 -55 -93 240 -93 141 0 252 4 261 10 8 5 11 10 5
10 -6 0 -6 3 0 8 19 12 65 99 57 107 -4 3 0 5 8 3 9 -2 14 3 12 13 -1 9 7 24
17 33 11 10 17 24 15 31 -3 7 5 20 18 29 13 9 22 19 21 21 -3 5 39 97 47 105
18 16 49 83 44 92 -4 7 -2 8 4 4 7 -4 12 -2 12 5 0 6 14 34 30 61 17 26 30 55
30 62 0 8 3 16 8 18 13 6 39 63 35 76 -9 24 -41 27 -279 22z m237 -72 c-16
-29 -97 -177 -180 -328 l-151 -275 -250 -5 c-138 -3 -250 -4 -250 -3 0 1 82
151 182 333 l181 330 249 0 248 0 -29 -52z"/>
<path d="M1046 3483 c-6 -14 -5 -15 5 -6 7 7 10 15 7 18 -3 3 -9 -2 -12 -12z"/>
<path d="M966 3403 c-6 -14 -5 -15 5 -6 7 7 10 15 7 18 -3 3 -9 -2 -12 -12z"/>
<path d="M1213 3383 c-21 -20 -42 -36 -48 -34 -5 1 -7 -1 -3 -4 9 -10 -62 -81
-76 -77 -6 2 -8 0 -4 -4 10 -9 -142 -160 -156 -156 -6 2 -8 0 -4 -4 10 -10
-144 -164 -157 -157 -5 4 -7 3 -3 -2 9 -10 -62 -81 -76 -77 -6 2 -8 0 -4 -3 9
-10 -62 -81 -76 -77 -6 2 -8 0 -4 -4 9 -8 -61 -80 -74 -76 -5 1 -7 -2 -3 -8 3
-5 3 -10 -2 -10 -4 0 -16 -12 -26 -25 -14 -20 -16 -29 -7 -46 7 -12 18 -18 26
-15 9 3 12 1 9 -4 -3 -6 -2 -10 4 -10 5 0 12 3 14 8 3 4 272 5 599 2 326 -3
595 -2 596 3 2 4 8 4 14 1 5 -3 22 6 38 21 15 15 32 27 37 26 4 -1 8 3 8 8 0
11 395 412 395 402 0 -3 16 21 35 53 18 33 32 63 30 67 -3 4 2 12 11 19 8 7
26 37 40 66 14 30 30 56 35 59 5 4 7 10 4 15 -3 5 2 16 11 24 14 15 14 18 -8
36 -22 18 -44 19 -580 19 l-557 1 -38 -37z m1167 3 c0 -2 -34 -66 -76 -142
l-75 -139 -237 -237 -237 -238 -625 -2 c-344 -2 -627 -2 -630 0 -2 1 167 174
375 382 l380 380 562 0 c310 0 563 -2 563 -4z"/>
<path d="M1230 3306 c0 -2 7 -7 16 -10 8 -3 12 -2 9 4 -6 10 -25 14 -25 6z"/>
<path d="M2246 3271 c-3 -5 2 -15 12 -22 15 -13 16 -12 4 3 -10 13 -10 17 0
21 9 4 9 6 1 6 -6 1 -14 -3 -17 -8z"/>
<path d="M1150 3226 c0 -2 7 -7 16 -10 8 -3 12 -2 9 4 -6 10 -25 14 -25 6z"/>
<path d="M1070 3146 c0 -2 7 -7 16 -10 8 -3 12 -2 9 4 -6 10 -25 14 -25 6z"/>
<path d="M990 3066 c0 -2 7 -7 16 -10 8 -3 12 -2 9 4 -6 10 -25 14 -25 6z"/>
<path d="M830 2906 c0 -2 7 -7 16 -10 8 -3 12 -2 9 4 -6 10 -25 14 -25 6z"/>
<path d="M750 2826 c0 -2 7 -7 16 -10 8 -3 12 -2 9 4 -6 10 -25 14 -25 6z"/>
<path d="M670 2746 c0 -2 7 -7 16 -10 8 -3 12 -2 9 4 -6 10 -25 14 -25 6z"/>
<path d="M3186 3405 c-9 -9 -32 -46 -53 -83 -20 -37 -45 -79 -55 -94 -11 -16
-16 -28 -12 -28 4 0 -1 -7 -12 -16 -10 -8 -12 -12 -4 -8 12 6 12 4 -1 -12 -9
-10 -28 -41 -42 -69 -17 -35 -86 -111 -222 -247 -158 -158 -196 -201 -193
-220 2 -18 10 -23 33 -25 100 -5 1249 -3 1254 3 3 4 0 4 -6 0 -7 -4 -13 -5
-13 -2 0 3 17 15 39 28 21 13 38 25 38 28 -2 8 36 49 42 46 6 -3 43 32 39 37
-4 4 36 46 41 43 6 -3 43 32 39 37 -4 4 36 46 41 43 6 -3 43 32 39 37 -4 4 36
46 41 43 6 -3 39 29 43 42 4 13 31 41 37 38 3 -2 14 5 24 16 9 10 14 18 10 18
-5 0 10 16 31 35 22 19 43 35 48 35 4 0 7 3 6 8 -3 9 34 52 41 48 6 -3 39 29
43 42 4 13 31 41 37 38 6 -3 39 29 43 42 6 17 32 40 41 35 6 -3 7 -2 4 3 -3 6
-2 16 3 24 5 8 5 21 -1 32 -9 16 -51 17 -718 18 -632 0 -711 -1 -725 -15z
m1059 -395 l-380 -380 -620 0 c-470 0 -624 -3 -633 -12 -7 -7 -12 -8 -12 -3 0
5 90 99 199 209 l200 201 77 140 c42 77 87 159 101 183 l24 42 712 0 712 0
-380 -380z"/>
<path d="M4172 3021 c-11 -7 -10 -9 3 -14 9 -4 14 -3 10 2 -3 5 1 12 7 14 7 3
9 6 3 6 -5 0 -16 -3 -23 -8z"/>
<path d="M886 3323 c-6 -14 -5 -15 5 -6 7 7 10 15 7 18 -3 3 -9 -2 -12 -12z"/>
<path d="M4684 3286 c-10 -14 -21 -23 -26 -20 -4 3 -8 1 -8 -4 0 -14 -67 -82
-74 -75 -3 4 -6 2 -6 -4 0 -15 -67 -83 -74 -76 -3 4 -6 2 -6 -4 0 -15 -67 -83
-74 -76 -3 4 -6 2 -6 -4 0 -15 -67 -83 -74 -76 -3 4 -6 2 -6 -4 0 -15 -67 -83
-74 -76 -3 4 -6 2 -6 -4 0 -15 -67 -83 -74 -76 -3 4 -6 2 -6 -4 0 -15 -67 -83
-74 -76 -3 4 -6 2 -6 -4 0 -15 -67 -83 -74 -76 -3 4 -6 1 -6 -4 0 -6 -17 -29
-37 -50 l-38 -38 -2 -1138 c-2 -758 1 -1145 8 -1158 5 -10 16 -19 24 -19 15 0
758 738 775 769 16 30 14 2293 -2 2309 -18 18 -33 15 -54 -12z m38 -1144 l-2
-1147 -380 -380 -380 -380 0 1145 0 1145 378 381 c207 209 379 382 382 382 3
1 4 -514 2 -1146z"/>
<path d="M4646 978 c3 -5 10 -6 15 -3 13 9 11 12 -6 12 -8 0 -12 -4 -9 -9z"/>
<path d="M4566 898 c3 -5 10 -6 15 -3 13 9 11 12 -6 12 -8 0 -12 -4 -9 -9z"/>
<path d="M4486 818 c3 -5 10 -6 15 -3 13 9 11 12 -6 12 -8 0 -12 -4 -9 -9z"/>
<path d="M4406 738 c3 -5 10 -6 15 -3 13 9 11 12 -6 12 -8 0 -12 -4 -9 -9z"/>
<path d="M4326 658 c3 -5 10 -6 15 -3 13 9 11 12 -6 12 -8 0 -12 -4 -9 -9z"/>
<path d="M4246 578 c3 -5 10 -6 15 -3 13 9 11 12 -6 12 -8 0 -12 -4 -9 -9z"/>
<path d="M4166 498 c3 -5 10 -6 15 -3 13 9 11 12 -6 12 -8 0 -12 -4 -9 -9z"/>
<path d="M4086 418 c3 -5 10 -6 15 -3 13 9 11 12 -6 12 -8 0 -12 -4 -9 -9z"/>
<path d="M4006 338 c3 -5 10 -6 15 -3 13 9 11 12 -6 12 -8 0 -12 -4 -9 -9z"/>
<path d="M806 3243 c-6 -14 -5 -15 5 -6 7 7 10 15 7 18 -3 3 -9 -2 -12 -12z"/>
<path d="M646 3083 c-6 -14 -5 -15 5 -6 7 7 10 15 7 18 -3 3 -9 -2 -12 -12z"/>
<path d="M566 3003 c-6 -14 -5 -15 5 -6 7 7 10 15 7 18 -3 3 -9 -2 -12 -12z"/>
<path d="M2299 3000 c-10 -8 -29 -24 -43 -35 -14 -11 -25 -26 -26 -32 0 -7 -4
-12 -8 -10 -5 1 -68 -58 -140 -130 -72 -73 -128 -133 -125 -133 4 0 -1 -6 -10
-12 -12 -9 -14 -17 -7 -28 5 -8 10 -11 10 -6 0 6 7 1 16 -10 8 -10 13 -14 11
-9 -5 9 147 10 365 2 36 -1 64 1 61 6 -2 4 1 7 8 7 14 0 369 358 369 372 0 33
-26 37 -245 35 -177 -2 -221 -5 -236 -17z m461 -18 c0 -4 -78 -85 -172 -179
l-173 -172 -225 -1 c-124 0 -228 -1 -231 0 -3 0 76 81 175 180 l181 180 223 0
c122 0 222 -3 222 -8z"/>
<path d="M486 2923 c-6 -14 -5 -15 5 -6 7 7 10 15 7 18 -3 3 -9 -2 -12 -12z"/>
<path d="M406 2843 c-6 -14 -5 -15 5 -6 7 7 10 15 7 18 -3 3 -9 -2 -12 -12z"/>
<path d="M326 2763 c-6 -14 -5 -15 5 -6 7 7 10 15 7 18 -3 3 -9 -2 -12 -12z"/>
<path d="M246 2683 c-6 -14 -5 -15 5 -6 7 7 10 15 7 18 -3 3 -9 -2 -12 -12z"/>
<path d="M1039 2512 c-586 -2 -648 -4 -660 -19 -12 -13 -14 -211 -14 -1179 0
-1103 1 -1164 18 -1181 17 -17 100 -18 1705 -20 928 -1 1697 -4 1709 -6 12 -2
20 0 17 4 -2 5 4 14 16 21 20 13 20 16 20 1183 l0 1170 -21 13 c-28 18 -1314
18 -1336 1 -11 -10 -13 -90 -11 -480 2 -257 0 -465 -4 -462 -5 2 -8 -1 -8 -6
0 -6 -13 -11 -29 -11 -23 0 -45 17 -117 96 -216 233 -211 228 -239 210 -14 -9
-25 -20 -25 -24 0 -4 -27 -35 -60 -67 -33 -33 -60 -66 -60 -72 0 -12 -14 -18
-34 -14 -5 1 -3 -6 5 -15 8 -10 9 -15 4 -12 -6 4 -31 -18 -55 -48 -25 -29 -49
-54 -55 -55 -5 0 -18 -2 -27 -4 -9 -2 -22 3 -28 10 -8 9 -11 154 -10 479 l1
465 -28 13 c-22 10 -164 12 -674 10z m671 -492 c0 -457 1 -471 20 -490 23 -23
68 -26 92 -7 9 6 76 77 148 157 72 80 134 145 139 145 4 0 72 -71 151 -157 78
-87 150 -159 159 -159 33 -3 47 3 69 27 l22 26 -2 464 -3 464 658 0 657 0 0
-1175 0 -1175 -1710 0 -1710 0 0 1175 0 1175 655 0 655 0 0 -470z"/>
<path d="M2105 1781 c-3 -5 -2 -12 3 -15 5 -3 9 1 9 9 0 17 -3 19 -12 6z"/>
<path d="M2059 1703 c-13 -16 -12 -17 4 -4 9 7 17 15 17 17 0 8 -8 3 -21 -13z"/>
<path d="M1806 1472 c-2 -4 4 -8 14 -8 10 0 16 4 14 8 -3 4 -9 8 -14 8 -5 0
-11 -4 -14 -8z"/>
<path d="M3616 948 c3 -5 10 -6 15 -3 13 9 11 12 -6 12 -8 0 -12 -4 -9 -9z"/>
<path d="M3654 949 c-3 -6 -2 -15 3 -20 5 -5 9 -1 9 11 0 23 -2 24 -12 9z"/>
<path d="M2877 912 c-15 -16 -17 -51 -17 -290 0 -269 0 -271 22 -286 19 -14
70 -16 356 -16 l333 0 24 25 25 24 0 254 c0 242 -1 256 -21 281 l-20 26 -343
0 c-320 0 -344 -1 -359 -18z m702 -16 c6 -7 11 -112 13 -268 3 -235 2 -257
-15 -267 -26 -17 -662 -17 -682 -1 -23 19 -22 495 1 528 l16 23 328 -1 c248
-1 331 -5 339 -14z"/>
<path d="M2980 801 c-6 -11 -10 -88 -10 -179 0 -141 2 -161 18 -175 16 -15 46
-16 250 -14 187 2 235 6 247 18 18 18 23 315 5 348 -10 20 -18 21 -255 21
-231 0 -245 -1 -255 -19z m500 -173 l0 -168 -242 0 -243 0 2 163 c1 89 2 164
2 167 1 3 109 5 241 5 l240 0 0 -167z"/>
<path d="M3375 750 c-3 -5 -1 -10 4 -10 6 0 11 5 11 10 0 6 -2 10 -4 10 -3 0
-8 -4 -11 -10z"/>
<path d="M3378 648 c5 -150 8 -165 10 -40 1 67 -1 122 -5 122 -5 0 -7 -37 -5
-82z"/>
<path d="M594 863 c1 -7 6 -16 10 -20 4 -4 7 -3 6 2 -5 21 0 27 13 16 10 -8
14 -7 14 2 0 7 -10 13 -22 13 -13 0 -22 -6 -21 -13z"/>
<path d="M1330 875 c0 -2 6 -8 13 -14 10 -8 14 -7 14 2 0 8 -6 14 -14 14 -7 0
-13 -1 -13 -2z"/>
<path d="M620 820 c-25 -25 -26 -61 -1 -91 l19 -24 340 0 c320 0 341 1 361 19
26 24 28 77 3 99 -17 15 -56 17 -360 17 -329 0 -343 -1 -362 -20z m690 -13 c0
-5 5 -5 10 -2 6 3 10 2 10 -4 0 -5 3 -16 6 -24 3 -8 -2 -22 -11 -30 -13 -14
-58 -16 -340 -17 -314 0 -325 0 -345 20 -18 18 -19 22 -6 43 l15 22 330 0
c182 0 331 -4 331 -8z"/>
<path d="M625 525 c-30 -29 -32 -64 -5 -93 21 -22 24 -22 360 -22 327 0 341 1
360 20 29 29 26 74 -6 99 -26 20 -38 21 -356 21 l-329 0 -24 -25z m694 -15
c22 -11 17 -64 -5 -56 -7 3 -11 0 -8 -7 3 -9 -72 -12 -320 -12 -178 0 -322 3
-320 7 3 4 -2 5 -10 2 -9 -3 -17 -2 -17 2 -6 41 -4 56 10 64 21 13 647 13 670
0z"/>
<path d="M563 435 c0 -8 4 -12 9 -9 5 3 6 10 3 15 -9 13 -12 11 -12 -6z"/>
<path d="M2811 337 c-13 -20 -13 -21 2 -8 14 11 17 11 17 1 0 -8 3 -11 6 -7 3
3 2 12 -3 21 -7 13 -11 12 -22 -7z"/>
<path d="M1887 2511 c-21 -5 -43 -13 -50 -20 -8 -8 -11 -111 -11 -366 0 -316
2 -357 17 -372 13 -13 19 -14 31 -3 9 7 16 19 16 27 0 8 4 12 8 9 5 -3 24 13
43 36 19 22 46 52 60 66 15 15 34 39 44 55 9 15 24 27 31 27 8 0 14 4 14 9 0
6 9 8 21 6 26 -5 190 -176 182 -190 -4 -5 -3 -7 1 -3 11 9 35 -14 28 -27 -3
-5 -2 -7 3 -3 4 4 14 0 20 -9 20 -27 46 0 41 44 -2 18 1 36 7 40 7 4 8 112 4
327 -6 270 -9 322 -22 335 -13 13 -51 16 -233 18 -119 1 -234 -2 -255 -6z
m483 -388 l-1 -368 -62 70 c-116 132 -173 185 -197 185 -24 0 -81 -53 -198
-185 l-62 -70 0 368 0 367 260 0 260 0 0 -367z"/>
<path d="M2224 1980 c0 -13 4 -16 10 -10 7 7 7 13 0 20 -6 6 -10 3 -10 -10z"/>
<path d="M1925 1909 c-4 -6 -5 -12 -2 -15 2 -3 7 2 10 11 7 17 1 20 -8 4z"/>
</g>
</svg>
