<svg version="1.0" preserveAspectRatio="xMidYMid meet" height="1080" viewBox="0 0 810 809.999993" zoomAndPan="magnify" width="1080" xmlns:xlink="http://www.w3.org/1999/xlink" xmlns="http://www.w3.org/2000/svg"><defs><clipPath id="2eae596804"><path clip-rule="nonzero" d="M 47.894531 339.613281 C 71.460938 367.949219 71.507812 443.128906 48.078125 471.578125 C 18.617188 507.339844 0.96875 553.09375 0.96875 602.839844 C 0.96875 717.714844 94.023438 810 207.648438 810 C 257.648438 810 303.414062 792.414062 339.15625 763.039062 C 367.671875 739.605469 443.308594 739.605469 471.820312 763.035156 C 507.5625 792.414062 553.332031 810 603.34375 810 C 716.964844 810 810 717.714844 810 602.839844 C 810 552.726562 791.804688 506.664062 761.847656 470.78125 C 738.308594 442.59375 738.308594 368.371094 761.8125 340.152344 C 791.792969 304.15625 810 257.832031 810 207.160156 C 810 93.277344 716.964844 0 603.34375 0 C 553.761719 0 508.53125 17.199219 472.976562 45.984375 C 444.03125 69.417969 365.503906 69.15625 336.558594 45.722656 C 301.195312 17.09375 256.089844 0 206.65625 0 C 93.03125 0 0 93.277344 0 207.160156 C 0 257.578125 18.027344 303.695312 47.894531 339.613281 Z M 47.894531 339.613281"></path></clipPath><clipPath id="b30c7f4327"><path clip-rule="nonzero" d="M 0 0 L 810 0 L 810 810 L 0 810 Z M 0 0"></path></clipPath><clipPath id="69c0353b6f"><path clip-rule="nonzero" d="M 47.894531 339.613281 C 71.460938 367.949219 71.507812 443.128906 48.078125 471.578125 C 18.617188 507.339844 0.96875 553.09375 0.96875 602.839844 C 0.96875 717.714844 94.023438 810 207.648438 810 C 257.648438 810 303.414062 792.414062 339.15625 763.039062 C 367.671875 739.605469 443.308594 739.605469 471.820312 763.035156 C 507.5625 792.414062 553.332031 810 603.34375 810 C 716.964844 810 810 717.714844 810 602.839844 C 810 552.726562 791.804688 506.664062 761.847656 470.78125 C 738.308594 442.59375 738.308594 368.371094 761.8125 340.152344 C 791.792969 304.15625 810 257.832031 810 207.160156 C 810 93.277344 716.964844 0 603.34375 0 C 553.761719 0 508.53125 17.199219 472.976562 45.984375 C 444.03125 69.417969 365.503906 69.15625 336.558594 45.722656 C 301.195312 17.09375 256.089844 0 206.65625 0 C 93.03125 0 0 93.277344 0 207.160156 C 0 257.578125 18.027344 303.695312 47.894531 339.613281 Z M 47.894531 339.613281"></path></clipPath><clipPath id="ed5862ebb5"><rect height="810" y="0" width="810" x="0"></rect></clipPath></defs><g clip-path="url(#2eae596804)"><g transform="matrix(1, 0, 0, 1, 0, 0.000000000000039746)"><g clip-path="url(#ed5862ebb5)"><g clip-path="url(#b30c7f4327)"><g clip-path="url(#69c0353b6f)"><rect fill-opacity="1" y="-178.199998" height="1166.39999" fill="#000000" width="1166.4" x="-178.2"></rect></g></g></g></g></g></svg>