<svg xmlns="http://www.w3.org/2000/svg" fill="none" viewBox="0 0 55 55" height="55" width="55">
<path fill="white" d="M38.5753 32.5527C38.7101 32.338 38.8325 32.1158 38.9419 31.8872C39.0116 31.7424 39.0868 31.603 39.1454 31.4527C39.2462 31.1907 39.3301 30.9224 39.3966 30.6497C39.4314 30.514 39.4791 30.3857 39.5048 30.2482C39.589 29.8255 39.6325 29.3958 39.6349 28.9649C39.6349 27.104 38.2049 24.596 35.3834 21.505C35.0657 21.1582 34.6793 20.8813 34.2488 20.692C33.8183 20.5026 33.3531 20.4049 32.8828 20.405C32.4161 20.4058 31.9547 20.5041 31.5282 20.6935C31.1017 20.8829 30.7194 21.1593 30.4059 21.505C29.8046 22.1669 29.2693 22.8049 28.7871 23.4245C28.7706 23.4447 28.7486 23.4685 28.7339 23.4887C28.6918 23.4355 28.6533 23.3879 28.6129 23.3347L28.5048 23.1972C28.1381 22.726 27.7824 22.2805 27.4653 21.8937L27.4231 21.8387C27.0979 21.4688 26.6976 21.1724 26.2488 20.9694C25.8001 20.7664 25.3132 20.6614 24.8207 20.6614C24.3281 20.6614 23.8413 20.7664 23.3925 20.9694C22.9438 21.1724 22.5435 21.4688 22.2183 21.8387C19.1016 25.6484 15.3799 30.9082 15.3799 34.342C15.3755 35.7382 15.6818 37.1179 16.2766 38.3811C16.8713 39.6443 17.7397 40.7593 18.8186 41.6454C19.8976 42.5315 21.1602 43.1665 22.5149 43.5043C23.8697 43.8421 25.2826 43.8743 26.6513 43.5985C26.8493 43.5582 27.0344 43.4849 27.2288 43.4335C27.6123 43.3403 27.9895 43.2228 28.3581 43.0815C28.5781 42.9935 28.7779 42.8762 28.9869 42.7717C29.3012 42.6207 29.6072 42.453 29.9036 42.2694C30.1126 42.1355 30.3014 41.9797 30.4976 41.8312C30.7671 41.6316 31.026 41.4181 31.2731 41.1914C31.4564 41.019 31.6233 40.8247 31.7919 40.6414C32.0138 40.3957 32.2246 40.1464 32.4208 39.8805C32.5711 39.6734 32.7086 39.4607 32.8424 39.2425C33.0142 38.9611 33.1714 38.671 33.3136 38.3735C33.4254 38.1407 33.5281 37.906 33.6198 37.6622C33.737 37.3469 33.8374 37.0256 33.9204 36.6997C33.9846 36.4467 34.0488 36.1955 34.0928 35.9352C34.1148 35.8179 34.1569 35.7079 34.1734 35.5887H34.2064C34.3073 35.5685 34.4008 35.5282 34.4998 35.5044C34.8115 35.4318 35.1178 35.3374 35.4164 35.222C35.5576 35.1634 35.6878 35.0882 35.8253 35.0222C36.0613 34.9134 36.2909 34.791 36.5128 34.6555C36.6521 34.5675 36.7804 34.4722 36.9106 34.3695C37.1092 34.2231 37.2995 34.0658 37.4808 33.8984C37.6036 33.7847 37.7191 33.6655 37.8328 33.5427C37.9985 33.3623 38.1546 33.1732 38.3003 32.9762C38.3883 32.8277 38.4854 32.6939 38.5753 32.5527ZM32.4318 23.3457C32.5876 23.1734 32.7984 23.1954 32.8773 23.1477H32.8938C32.9561 23.1485 33.018 23.159 33.0771 23.1789C33.1694 23.213 33.2533 23.2668 33.3228 23.3365C33.3228 23.3365 33.3393 23.3365 33.3466 23.353C34.5652 24.613 35.6086 26.0313 36.4486 27.5697C36.6898 27.9968 36.8367 28.4707 36.8794 28.9594C36.857 30.0062 36.4254 31.0026 35.6772 31.7351C34.9289 32.4675 33.9234 32.8777 32.8763 32.8777C31.8293 32.8777 30.8238 32.4675 30.0755 31.7351C29.3273 31.0026 28.8957 30.0062 28.8733 28.9594C28.8751 28.857 28.8868 28.7551 28.9081 28.655C29.1159 27.9015 29.4534 27.1899 29.9054 26.5522C30.6613 25.4181 31.506 24.3459 32.4318 23.3457ZM18.1189 34.3457C18.1189 32.3602 20.4418 28.336 24.3339 23.5859C24.3911 23.5138 24.4639 23.4556 24.5467 23.4156C24.6296 23.3756 24.7204 23.3548 24.8124 23.3549C24.9028 23.3547 24.9921 23.3749 25.0737 23.414C25.1552 23.453 25.227 23.5099 25.2836 23.5804C25.5843 23.947 25.9253 24.376 26.2754 24.8234L26.6054 25.2542C26.7649 25.4614 26.9318 25.6869 27.0949 25.9069C27.0656 25.9619 27.0454 26.0114 27.0161 26.0645C26.9556 26.1782 26.9024 26.2882 26.8474 26.3964C26.7429 26.6109 26.6476 26.818 26.5669 27.0197C26.5229 27.1279 26.4789 27.236 26.4423 27.3424C26.3745 27.5335 26.317 27.7281 26.2699 27.9254C26.2498 28.0134 26.2223 28.1087 26.2058 28.1894C26.1553 28.4461 26.1283 28.7069 26.1251 28.9685C26.1272 29.3994 26.1702 29.8291 26.2534 30.2519C26.2809 30.3875 26.3249 30.514 26.3598 30.646C26.4257 30.9181 26.5089 31.1857 26.6091 31.4472C26.6678 31.5939 26.7374 31.7332 26.8053 31.8744C26.914 32.1051 27.0364 32.3292 27.1719 32.5454C27.2581 32.6829 27.3553 32.813 27.4414 32.9414C27.5909 33.1442 27.7513 33.3388 27.9218 33.5244C28.0281 33.6399 28.1326 33.7554 28.2463 33.8635C28.4403 34.0435 28.6447 34.2118 28.8586 34.3677C28.9723 34.4539 29.0804 34.551 29.1996 34.6225C29.4793 34.8032 29.7722 34.9626 30.0759 35.0992C30.1456 35.1304 30.2079 35.1744 30.2776 35.2037C30.6335 35.3532 31.0015 35.4721 31.3776 35.5594V35.6327C31.3501 35.772 31.3006 35.9022 31.2658 36.0397C31.1994 36.3071 31.1174 36.5703 31.0201 36.828C30.9596 36.9802 30.8808 37.1232 30.8093 37.2699C30.7033 37.4931 30.5852 37.7104 30.4554 37.9207C30.3656 38.0637 30.2721 38.1975 30.1639 38.3332C30.0206 38.5242 29.8677 38.7078 29.7056 38.8832C29.5901 39.0079 29.4709 39.127 29.3389 39.2499C29.164 39.4119 28.9804 39.5642 28.7889 39.7064C28.6551 39.8072 28.5194 39.908 28.3764 39.9979C28.1651 40.1286 27.9466 40.2473 27.7219 40.3535C27.5771 40.425 27.4359 40.5002 27.2856 40.5607C27.026 40.6602 26.7602 40.7429 26.4899 40.8082C26.3561 40.843 26.2278 40.8925 26.0903 40.9182C25.1211 41.1127 24.1208 41.0891 23.1619 40.8491C22.203 40.6091 21.3096 40.1586 20.5464 39.5304C19.7832 38.9022 19.1695 38.112 18.7496 37.2171C18.3297 36.3223 18.1143 35.3452 18.1189 34.3567V34.3457Z"></path>
<path fill="white" d="M49.348 14.3587V11.2988C49.3461 9.47606 48.6211 7.7285 47.3322 6.43961C46.0433 5.15072 44.2958 4.42577 42.473 4.42383H12.5273C10.7047 4.42625 8.95744 5.15136 7.66865 6.44015C6.37986 7.72893 5.65475 9.47621 5.65233 11.2988V14.3587C4.10973 15.0393 2.79785 16.1531 1.8759 17.5649C0.953949 18.9766 0.461564 20.6256 0.458496 22.3117V41.8678C0.461407 44.1765 1.37982 46.3898 3.01232 48.0223C4.64482 49.6548 6.85813 50.5732 9.16683 50.5762H45.8335C48.1422 50.5732 50.3555 49.6548 51.988 48.0223C53.6205 46.3898 54.5389 44.1765 54.5418 41.8678V22.3117C54.5388 20.6256 54.0464 18.9766 53.1244 17.5649C52.2025 16.1531 50.8906 15.0393 49.348 14.3587ZM8.40233 11.2988C8.40378 10.2053 8.83885 9.15689 9.61212 8.38362C10.3854 7.61035 11.4338 7.17528 12.5273 7.17383H42.473C43.5666 7.17528 44.6149 7.61035 45.3882 8.38362C46.1615 9.15689 46.5965 10.2053 46.598 11.2988V13.6822C46.3413 13.6602 46.0957 13.6052 45.8335 13.6052H9.16683C8.90466 13.6052 8.659 13.6602 8.40233 13.6822V11.2988ZM51.7918 41.8678C51.7899 43.4475 51.1615 44.9619 50.0445 46.0789C48.9275 47.1958 47.4131 47.8242 45.8335 47.8262H9.16683C7.58718 47.8242 6.07278 47.1958 4.95579 46.0789C3.83881 44.9619 3.21044 43.4475 3.2085 41.8678V22.3117C3.21044 20.732 3.83881 19.2176 4.95579 18.1006C6.07278 16.9836 7.58718 16.3553 9.16683 16.3533H45.8335C47.4131 16.3553 48.9275 16.9836 50.0445 18.1006C51.1615 19.2176 51.7899 20.732 51.7918 22.3117V41.8678Z"></path>
</svg>
