<svg xmlns="http://www.w3.org/2000/svg" fill="none" viewBox="0 0 35 35" height="35" width="35">
<g clip-path="url(#clip0_2060_3983)">
<path fill="white" d="M18.4471 34.886C37.4847 33.7935 41.024 6.98216 22.96 0.961477C17.9614 -0.711414 12.2301 0.0494945 7.85709 2.99941H7.85832C5.83163 4.34692 4.10993 6.10431 2.80427 8.15821C1.49861 10.2121 0.637997 12.5169 0.277944 14.9239L0.27685 14.9231C-1.43644 25.6676 7.57907 35.5966 18.4471 34.886ZM32.5371 23.8511C31.9157 25.3225 31.0804 26.694 30.0584 27.9214C29.9862 27.4912 30.1853 26.9929 29.8887 26.5915C29.5669 25.964 29.2687 25.3239 28.9334 24.7038C28.8087 24.4733 28.8431 24.3408 29.0268 24.1748C30.995 22.4479 29.2404 23.3661 29.4338 20.8978C29.4407 20.8311 29.4275 20.7638 29.3958 20.7047C29.3641 20.6456 29.3154 20.5974 29.256 20.5663C28.3231 19.9706 27.1051 19.766 26.141 20.428C24.9393 20.9959 23.2254 20.5615 22.8367 19.1823C22.4929 18.2655 22.5351 17.3397 22.526 16.4035C22.5815 15.8985 23.2741 15.8138 23.1618 15.2302C23.1884 14.4892 22.9469 13.7069 23.6477 13.2233C23.7014 13.1759 23.7654 13.1417 23.8346 13.1234C23.9038 13.105 23.9763 13.1031 24.0464 13.1177C24.6867 13.1951 25.3338 13.0442 25.8738 12.6915C26.4465 12.3285 27.1535 12.5635 27.7879 12.4809C28.0902 12.4593 28.3142 12.5481 28.5004 12.7835C28.8664 13.2456 29.4389 13.3813 29.9199 13.662C30.0817 13.7564 30.1686 13.6374 30.2444 13.5395C30.6485 13.0182 31.2678 12.843 31.8108 12.5433C32.1065 12.3738 32.6994 13.0208 33.2042 13.0437C34.2101 16.5646 33.9767 20.4842 32.5371 23.8511ZM32.3007 10.6182C31.6979 10.6975 32.1033 10.1248 31.7922 9.82523C31.4798 9.54644 31.1826 9.25102 30.902 8.94025C30.7567 8.78507 30.6627 8.76012 30.4948 8.92589C30.0436 9.37228 30.069 9.32491 30.5951 9.85831C31.2093 10.5336 31.6723 10.5223 30.5609 10.9915C30.3079 11.1054 30.0691 11.3649 29.7931 10.9899C29.626 10.7631 29.3986 10.6106 29.4256 10.2611C29.4671 9.72214 29.0559 9.3314 28.8656 8.86608C28.8088 8.72724 28.7084 8.82506 28.6549 8.89342C28.2546 9.40803 27.65 9.60696 27.1023 9.89283C26.1563 10.72 26.3722 10.6299 25.1169 10.5939C25.0007 10.5989 24.9665 10.4588 24.916 10.3769C24.2839 9.34206 24.4065 9.08982 25.0614 8.11289C25.3023 7.96838 26.3666 8.13518 26.5678 8.34531C26.6582 8.43965 26.7325 8.54957 26.863 8.71405C26.9633 8.31346 26.9125 8.00653 26.9229 7.70417C27.0925 6.46352 28.135 7.02263 28.8751 6.75316C29.2249 6.4858 29.3684 6.35271 29.2942 6.22153C30.5314 7.51173 31.5472 8.99724 32.3007 10.6182ZM29.193 6.11769C28.6879 5.78881 27.5657 5.44209 27.5358 4.62944C28.1217 5.08687 28.6755 5.58413 29.193 6.11769ZM5.96134 5.96046C6.90296 5.01747 7.9565 4.1933 9.09842 3.50636C9.48677 3.7046 9.76383 4.43393 10.251 4.17478C10.7705 3.90216 11.3242 3.68594 11.6972 3.19847C11.9085 2.94178 12.2782 3.13824 12.5542 3.06038C13.6392 2.91348 13.9325 4.14887 14.3384 4.8838C14.3026 4.91395 14.2837 4.94286 14.2681 4.94109C13.3267 4.83486 12.4634 5.13714 11.6102 5.46568C11.3299 5.57362 11.1139 5.58278 10.9386 5.31289C10.7219 4.97916 10.4435 4.96952 10.0978 5.11349C9.77757 5.33983 8.62715 5.37893 8.70666 5.83318C8.78472 6.25994 8.44778 6.98736 9.21381 6.84196C9.57277 6.71706 9.88134 7.7778 10.1007 7.16796C10.5714 5.26074 12.5559 6.92508 14.0861 5.70644C14.649 5.37243 15.112 6.47261 15.3307 6.86014C15.497 7.22374 15.6172 7.65181 16.2018 7.525C15.8352 7.89168 15.4662 8.2559 15.1037 8.62654C14.9986 8.73407 14.903 8.69962 14.785 8.65861C14.3293 8.50042 13.8674 8.35981 13.4133 8.19718C13.1966 8.11959 13.0927 8.112 13.0977 8.40226C13.4684 10.3984 11.768 8.47322 10.5871 9.97015C9.11353 11.4511 10.2539 12.6939 8.22869 14.2507C8.10762 14.3619 8.00707 14.3753 7.88737 14.2874C7.00758 13.6629 5.0309 13.3235 4.3737 14.3444C4.36427 14.3752 4.36197 14.4077 4.36696 14.4394C4.37196 14.4712 4.38413 14.5014 4.40254 14.5278C4.75453 15.092 4.78214 16.0411 5.45042 15.0948C5.64935 14.9252 5.883 14.9823 6.08671 15.0162C6.30102 15.0518 6.19458 15.2787 6.18925 15.4107C6.21954 15.9371 6.97668 16.0309 6.82773 16.6234C6.74276 17.0521 7.28273 16.8152 7.52 16.8871C7.90357 16.9424 8.19458 16.8141 8.44046 16.5145C8.62695 16.2874 9.69739 16.133 9.94389 16.2792C10.1393 16.4761 10.2214 16.7838 10.3616 17.0243C10.5947 17.4919 10.6047 17.5013 10.9477 17.1318C11.7359 16.513 12.8438 17.0026 13.5938 17.4322C14.183 17.7622 13.9884 18.9405 14.866 18.7711C15.0346 18.7314 15.1258 18.875 15.2182 18.9791C15.8557 19.759 16.8851 19.6657 17.2622 20.7352C17.5051 21.1812 17.4791 21.5722 17.2727 22.0135C17.126 22.8424 16.7184 23.4532 15.8577 23.6854C15.1752 23.9305 16.3266 25.0441 14.7644 25.4881C14.3637 25.5754 14.3118 25.8822 14.3637 26.2421C14.5294 27.1689 14.3044 27.8683 13.285 28.1125C12.9836 28.2121 13.0373 28.613 12.8942 28.8414C12.1909 30.1232 12.8302 31.0583 13.7259 31.9559C12.9397 32.0023 12.0878 32.0823 11.816 31.2359C11.4766 30.25 11.1694 29.2555 10.666 28.3337C10.4969 28.0242 10.6057 27.6646 10.6014 27.3288C10.4787 25.9553 9.07607 24.9272 9.33953 23.4637C9.44166 22.7307 8.39617 23.7775 7.3137 22.4435C6.9529 22.0155 6.11337 20.9811 6.25836 20.4449C6.5547 19.7062 6.58594 18.8152 7.27008 18.3025C7.5615 18.0759 7.58802 17.3695 7.0445 17.5065C5.64833 17.7401 5.94665 16.691 5.12893 16.8902C4.57522 16.9491 4.17552 16.7676 3.7452 16.3802C2.45416 15.1928 2.08407 16.0726 1.34435 15.1923C1.84076 11.6955 3.46132 8.45517 5.96134 5.96046Z"></path>
</g>
<defs>
<clipPath id="clip0_2060_3983">
<rect fill="white" height="35" width="35"></rect>
</clipPath>
</defs>
</svg>
