<svg xmlns="http://www.w3.org/2000/svg" fill="none" viewBox="0 0 35 35" height="35" width="35">
<path fill="white" d="M31.4431 15.6606L29.4597 13.3564C29.0806 12.9189 28.7743 12.1023 28.7743 11.5189V9.03978C28.7743 7.49395 27.5056 6.2252 25.9597 6.2252H23.4806C22.9118 6.2252 22.0806 5.91895 21.6431 5.53978L19.3389 3.55645C18.3326 2.69603 16.6847 2.69603 15.6639 3.55645L13.3743 5.55436C12.9368 5.91895 12.1055 6.2252 11.5368 6.2252H9.01383C7.468 6.2252 6.19925 7.49395 6.19925 9.03978V11.5335C6.19925 12.1023 5.893 12.9189 5.52842 13.3564L3.55967 15.6752C2.71383 16.6815 2.71383 18.3148 3.55967 19.321L5.52842 21.6398C5.893 22.0773 6.19925 22.894 6.19925 23.4627V25.9565C6.19925 27.5023 7.468 28.771 9.01383 28.771H11.5368C12.1055 28.771 12.9368 29.0773 13.3743 29.4565L15.6785 31.4398C16.6847 32.3002 18.3326 32.3002 19.3535 31.4398L21.6576 29.4565C22.0951 29.0773 22.9118 28.771 23.4951 28.771H25.9743C27.5201 28.771 28.7889 27.5023 28.7889 25.9565V23.4773C28.7889 22.9085 29.0951 22.0773 29.4743 21.6398L31.4576 19.3356C32.3035 18.3294 32.3035 16.6669 31.4431 15.6606ZM23.5681 14.7419L16.5243 21.7856C16.3201 21.9898 16.0431 22.1065 15.7514 22.1065C15.4597 22.1065 15.1826 21.9898 14.9785 21.7856L11.4493 18.2565C11.0263 17.8335 11.0263 17.1335 11.4493 16.7106C11.8722 16.2877 12.5722 16.2877 12.9951 16.7106L15.7514 19.4669L22.0222 13.196C22.4451 12.7731 23.1451 12.7731 23.5681 13.196C23.991 13.6189 23.991 14.3189 23.5681 14.7419Z"></path>
</svg>
