<svg xmlns="http://www.w3.org/2000/svg" fill="none" viewBox="0 0 197 97" height="97" width="197">
<g clip-path="url(#clip0_2060_4275)">
<path fill="black" d="M46.7615 11C39.0681 11 31.69 14.0655 26.25 19.522L8.49615 37.3299C3.05615 42.7865 0 50.1871 0 57.9039C0 73.9733 12.9872 87 29.0077 87C36.7011 87 44.0793 83.9344 49.5192 78.4779L61.7997 66.16C61.7997 66.1598 61.7999 66.1603 61.7997 66.16L97.5807 30.2701C100.179 27.664 103.703 26.2 107.377 26.2C113.528 26.2 118.744 30.2214 120.552 35.7863L131.844 24.4595C126.692 16.3665 117.66 11 107.377 11C99.6835 11 92.3054 14.0655 86.8654 19.522L38.8039 67.7299C36.2058 70.336 32.682 71.8 29.0077 71.8C21.3564 71.8 15.1538 65.5786 15.1538 57.9039C15.1538 54.2184 16.6134 50.6839 19.2115 48.0779L36.9653 30.2701C39.5634 27.664 43.0872 26.2 46.7615 26.2C52.9132 26.2 58.1281 30.2216 59.9362 35.7867L71.2289 24.4598C66.0773 16.3666 57.0444 11 46.7615 11Z"></path>
<path fill="black" d="M99.4196 67.7299C96.8214 70.336 93.2977 71.8 89.6234 71.8C83.4727 71.8 78.258 67.7796 76.4494 62.2156L65.1572 73.5422C70.309 81.6341 79.3415 87 89.6234 87C97.3167 87 104.695 83.9344 110.135 78.4779L158.196 30.2701C160.794 27.664 164.318 26.2 167.992 26.2C175.644 26.2 181.846 32.4215 181.846 40.0961C181.846 43.7816 180.387 47.3161 177.789 49.9221L160.035 67.7299C157.437 70.336 153.913 71.8 150.239 71.8C144.088 71.8 138.873 67.7788 137.064 62.2144L125.772 73.5412C130.924 81.6339 139.956 87 150.239 87C157.932 87 165.31 83.9344 170.75 78.4779L188.504 60.6701C193.944 55.2135 197 47.8129 197 40.0961C197 24.0268 184.013 11 167.992 11C160.299 11 152.921 14.0655 147.481 19.522L99.4196 67.7299Z"></path>
</g>
<defs>
<clipPath id="clip0_2060_4275">
<rect transform="translate(0 11)" fill="white" height="76" width="197"></rect>
</clipPath>
</defs>
</svg>
