<svg xmlns="http://www.w3.org/2000/svg" fill="none" viewBox="0 0 35 35" height="35" width="35">
<path fill="white" d="M2.05689 7.6576C3.33004 10.6188 5.47938 13.5477 8.48703 14.8102C8.83035 14.9532 9.22016 15.0605 9.62071 15.1499C10.4218 13.9555 11.3409 12.9862 12.4173 12.1924C13.3436 11.5129 14.3128 10.98 15.3105 10.5615C15.0244 10.3613 14.724 10.1789 14.4093 10.0144C13.1576 9.35991 11.8022 8.78413 10.4826 8.16543C11.7235 8.5016 13.1469 8.62677 14.3342 9.0595C15.0745 9.33133 15.7576 9.70684 16.3941 10.1539C18.2932 9.50654 20.278 9.1954 22.2592 8.9594C20.6535 6.2915 17.2274 4.14932 14.6453 3.18015C11.9488 2.16803 8.89469 2.04286 5.8942 1.73176C4.05599 1.54218 2.05686 0.855572 0.594161 0.0544868C0.261567 -0.127903 -0.0924834 0.17608 0.0219573 0.544436C0.740824 2.84394 1.1056 5.44747 2.05689 7.6576Z"></path>
<path fill="white" d="M33.7605 7.30753C30.3773 9.14573 26.4971 9.37104 22.6955 9.80734C20.8395 10.0219 19.0013 10.2865 17.2524 10.8159C16.8733 10.9303 16.4943 11.059 16.1223 11.2021C15.0173 11.6241 13.9515 12.1784 12.9466 12.9187C12.0025 13.6125 11.23 14.435 10.5791 15.3398C9.54198 16.7846 8.81958 18.4476 8.22592 20.175C7.14231 23.3113 6.6452 26.6444 6.74176 29.9596C6.7811 31.3043 6.80256 32.7026 7.13515 34.0151C7.21025 34.3048 7.28178 34.6731 7.50709 34.8877C7.80034 35.1702 8.32605 34.8805 8.20803 34.4693C7.35688 31.5689 7.88617 28.1786 9.06276 25.407C10.4146 22.2205 13.0253 20.3251 16.2153 19.17C17.0629 18.8625 17.9284 18.5942 18.8081 18.3403C18.826 18.3332 18.8439 18.3332 18.8617 18.3332C19.037 18.3332 19.1121 18.5907 18.9297 18.673C17.8926 19.1414 16.8626 19.6135 15.8827 20.1249C11.0833 22.6283 8.98763 28.4576 10.7865 28.4576C10.9332 28.4576 11.1048 28.4183 11.3015 28.336C14.0767 27.1881 17.374 27.1774 20.4245 26.6123C21.4974 26.4156 22.5417 26.1474 23.5216 25.7397C27.4126 24.1161 30.195 20.9403 31.8507 17.1209C33.0845 14.2706 33.5638 10.9053 34.4972 7.94414C34.6188 7.56506 34.3505 7.23965 34.0215 7.23965C33.9393 7.23601 33.8499 7.2575 33.7605 7.30753Z"></path>
</svg>
