<svg xmlns="http://www.w3.org/2000/svg" fill="none" viewBox="0 0 138 24" height="24" width="138">
<path fill="white" d="M3.0602 15C3.5002 15.78 3.9802 16.46 4.5002 17.04C5.0402 17.62 5.6302 18.07 6.2702 18.39C6.9102 18.71 7.6002 18.87 8.3402 18.87C9.2002 18.87 9.9002 18.65 10.4402 18.21C10.9802 17.77 11.2502 17.17 11.2502 16.41C11.2502 15.75 11.0802 15.22 10.7402 14.82C10.4202 14.42 9.9302 14.07 9.2702 13.77C8.6302 13.45 7.8402 13.11 6.9002 12.75C6.4002 12.57 5.8202 12.33 5.1602 12.03C4.5202 11.71 3.9102 11.31 3.3302 10.83C2.7502 10.33 2.2702 9.73 1.8902 9.03C1.5102 8.31 1.3202 7.45 1.3202 6.45C1.3202 5.25 1.6202 4.22 2.2202 3.36C2.8402 2.48 3.6702 1.81 4.7102 1.35C5.7702 0.870002 6.9502 0.630002 8.2502 0.630002C9.5902 0.630002 10.7402 0.860002 11.7002 1.32C12.6802 1.76 13.4902 2.33 14.1302 3.03C14.7902 3.71 15.3002 4.42 15.6602 5.16L12.3002 7.02C12.0202 6.52 11.6802 6.07 11.2802 5.67C10.9002 5.25 10.4602 4.92 9.9602 4.68C9.4602 4.42 8.8902 4.29 8.2502 4.29C7.4102 4.29 6.7802 4.49 6.3602 4.89C5.9402 5.27 5.7302 5.72 5.7302 6.24C5.7302 6.76 5.9002 7.22 6.2402 7.62C6.5802 8 7.1002 8.37 7.8002 8.73C8.5002 9.07 9.3802 9.42 10.4402 9.78C11.1202 10.02 11.7702 10.32 12.3902 10.68C13.0302 11.04 13.6002 11.48 14.1002 12C14.6202 12.5 15.0202 13.1 15.3002 13.8C15.6002 14.48 15.7502 15.27 15.7502 16.17C15.7502 17.19 15.5502 18.1 15.1502 18.9C14.7502 19.7 14.2002 20.38 13.5002 20.94C12.8002 21.48 12.0102 21.89 11.1302 22.17C10.2702 22.47 9.3602 22.62 8.4002 22.62C7.1202 22.62 5.9202 22.38 4.8002 21.9C3.7002 21.4 2.7402 20.73 1.9202 19.89C1.1002 19.05 0.460195 18.14 0.000195317 17.16L3.0602 15ZM23.5078 22.05V18.42H34.0978V22.05H23.5078ZM23.5078 4.68V1.05H34.0978V4.68H23.5078ZM23.5078 12.69V9.12H33.4978V12.69H23.5078ZM20.7478 1.05H24.8878V22.05H20.7478V1.05ZM44.5959 12.27H49.1259L55.9659 22.05H50.8959L44.5959 12.27ZM39.8259 1.05H44.1159V22.05H39.8259V1.05ZM42.4359 4.71V1.05H46.8759C48.5359 1.05 49.9459 1.33 51.1059 1.89C52.2659 2.45 53.1559 3.23 53.7759 4.23C54.3959 5.23 54.7059 6.4 54.7059 7.74C54.7059 9.06 54.3959 10.23 53.7759 11.25C53.1559 12.25 52.2659 13.03 51.1059 13.59C49.9459 14.15 48.5359 14.43 46.8759 14.43H42.4359V11.01H46.6059C47.3659 11.01 48.0159 10.89 48.5559 10.65C49.1159 10.39 49.5459 10.03 49.8459 9.57C50.1459 9.09 50.2959 8.52 50.2959 7.86C50.2959 7.2 50.1459 6.64 49.8459 6.18C49.5459 5.7 49.1159 5.34 48.5559 5.1C48.0159 4.84 47.3659 4.71 46.6059 4.71H42.4359ZM62.6894 22.05V18.42H73.2794V22.05H62.6894ZM62.6894 4.68V1.05H73.2794V4.68H62.6894ZM62.6894 12.69V9.12H72.6794V12.69H62.6894ZM59.9294 1.05H64.0694V22.05H59.9294V1.05ZM93.9475 1.05H98.0875V23.1L83.1475 9.03V22.05H79.0075V2.6226e-06L93.9475 14.07V1.05ZM104.15 1.05H108.5V22.05H104.15V1.05ZM117.857 11.55C117.857 12.97 118.157 14.22 118.757 15.3C119.377 16.38 120.207 17.22 121.247 17.82C122.287 18.42 123.447 18.72 124.727 18.72C126.027 18.72 127.177 18.44 128.177 17.88C129.177 17.3 129.957 16.5 130.517 15.48C131.077 14.46 131.357 13.28 131.357 11.94C131.357 10.58 131.077 9.35 130.517 8.25C129.957 7.15 129.157 6.27 128.117 5.61C127.097 4.95 125.887 4.62 124.487 4.62C123.187 4.62 122.037 4.92 121.037 5.52C120.057 6.12 119.277 6.94 118.697 7.98C118.137 9.02 117.857 10.21 117.857 11.55ZM113.327 11.55C113.327 9.95 113.607 8.49 114.167 7.17C114.727 5.83 115.517 4.67 116.537 3.69C117.557 2.71 118.737 1.96 120.077 1.44C121.437 0.900002 122.907 0.630002 124.487 0.630002C126.087 0.630002 127.557 0.900002 128.897 1.44C130.237 1.96 131.397 2.71 132.377 3.69C133.377 4.67 134.147 5.83 134.687 7.17C135.247 8.49 135.527 9.95 135.527 11.55C135.527 13.13 135.257 14.6 134.717 15.96C134.177 17.3 133.407 18.47 132.407 19.47C131.427 20.47 130.267 21.25 128.927 21.81C127.587 22.35 126.107 22.62 124.487 22.62C122.887 22.62 121.407 22.35 120.047 21.81C118.687 21.25 117.497 20.47 116.477 19.47C115.477 18.47 114.697 17.3 114.137 15.96C113.597 14.6 113.327 13.13 113.327 11.55ZM123.167 13.05H127.817L137.567 22.32H132.797L123.167 13.05Z"></path>
</svg>
