<svg xmlns="http://www.w3.org/2000/svg" fill="none" viewBox="0 0 34 33" height="33" width="34">
<path fill="white" d="M33.2499 21.6702L29.2714 29.1497C29.2714 29.1497 28.4094 30.6352 24.8287 30.847L20.7176 30.9533V32.611L18.5294 29.7598L16.3412 26.8555L20.7176 21.047V23.4475H28.3298C28.3298 23.4472 31.7648 23.739 33.2499 21.6702ZM29.6554 13.1378L24.7112 16.0034C24.2787 16.254 24.1325 16.8085 24.3852 17.2398L27.2292 22.0944C30.5446 22.3993 31.5526 21.3783 31.5526 21.3783C34.2049 19.8799 32.7328 16.5511 32.7328 16.5511L30.882 13.4554C30.6288 13.0319 30.0823 12.8904 29.6554 13.1378ZM4.499 28.42C3.49103 26.0725 5.5203 23.2876 5.5203 23.2876L9.49883 16.776L11.5411 18.0225L8.88871 11.259L1.64803 12.0014L3.06719 12.8634L1.05102 16.3651C-0.620033 19.5479 0.202347 21.0463 0.202347 21.0463L4.499 28.42ZM5.62625 27.2661C5.53329 30.3163 9.14061 30.7671 9.14061 30.7671L12.7209 30.8307C13.2191 30.8396 13.6301 30.4429 13.6389 29.9447L13.7397 24.24C13.7484 23.7428 13.3533 23.3323 12.8561 23.3222L7.25729 23.2079C5.2947 25.8739 5.63951 27.2794 5.63951 27.2794L5.62625 27.2661ZM21.8586 11.9355L25.4526 12.4793L28.4761 5.8751L27.0174 6.65747L24.9485 3.10317C23.0522 0.0529712 21.3411 0 21.3411 0H12.8407C15.3738 0.318221 16.8192 3.47473 16.8192 3.47473L20.4395 10.1719L18.331 11.3125L21.8586 11.9355ZM15.9438 4.82714C14.6176 1.7636 13.2915 1.35241 13.2915 1.35241C10.7188 -0.265674 8.49056 2.61228 8.49056 2.61228L6.60135 5.67997C6.3408 6.10304 6.47142 6.65714 6.89349 6.9193L11.7623 9.94349C12.1882 10.208 12.748 10.0746 13.0088 9.64642L15.9438 4.82714Z"></path>
</svg>
