<svg version="1.0" preserveAspectRatio="xMidYMid meet" height="1000" viewBox="0 0 1500 749.999995" zoomAndPan="magnify" width="2000" xmlns:xlink="http://www.w3.org/1999/xlink" xmlns="http://www.w3.org/2000/svg"><defs><g></g><clipPath id="2aebc32a81"><path clip-rule="nonzero" d="M 845.367188 104.871094 L 1385.628906 104.871094 L 1385.628906 645.128906 L 845.367188 645.128906 Z M 845.367188 104.871094"></path></clipPath><clipPath id="2d1e488510"><path clip-rule="nonzero" d="M 1115.496094 104.871094 C 966.308594 104.871094 845.367188 225.8125 845.367188 375 C 845.367188 524.1875 966.308594 645.128906 1115.496094 645.128906 C 1264.6875 645.128906 1385.628906 524.1875 1385.628906 375 C 1385.628906 225.8125 1264.6875 104.871094 1115.496094 104.871094 Z M 1115.496094 104.871094"></path></clipPath><clipPath id="086e4a6f67"><path clip-rule="nonzero" d="M 0.367188 0.871094 L 540.628906 0.871094 L 540.628906 541.128906 L 0.367188 541.128906 Z M 0.367188 0.871094"></path></clipPath><clipPath id="f8d0c07fd7"><path clip-rule="nonzero" d="M 270.496094 0.871094 C 121.308594 0.871094 0.367188 121.8125 0.367188 271 C 0.367188 420.1875 121.308594 541.128906 270.496094 541.128906 C 419.6875 541.128906 540.628906 420.1875 540.628906 271 C 540.628906 121.8125 419.6875 0.871094 270.496094 0.871094 Z M 270.496094 0.871094"></path></clipPath><clipPath id="73a8c6881f"><rect height="542" y="0" width="541" x="0"></rect></clipPath><clipPath id="eebea73ec9"><path clip-rule="nonzero" d="M 114.371094 104.871094 L 654.632812 104.871094 L 654.632812 645.128906 L 114.371094 645.128906 Z M 114.371094 104.871094"></path></clipPath><clipPath id="ca22ac33ac"><path clip-rule="nonzero" d="M 384.503906 104.871094 C 235.3125 104.871094 114.371094 225.8125 114.371094 375 C 114.371094 524.1875 235.3125 645.128906 384.503906 645.128906 C 533.691406 645.128906 654.632812 524.1875 654.632812 375 C 654.632812 225.8125 533.691406 104.871094 384.503906 104.871094 Z M 384.503906 104.871094"></path></clipPath><clipPath id="7703fe67b7"><path clip-rule="nonzero" d="M 0.371094 0.871094 L 540.632812 0.871094 L 540.632812 541.128906 L 0.371094 541.128906 Z M 0.371094 0.871094"></path></clipPath><clipPath id="572e0cd0ab"><path clip-rule="nonzero" d="M 270.503906 0.871094 C 121.3125 0.871094 0.371094 121.8125 0.371094 271 C 0.371094 420.1875 121.3125 541.128906 270.503906 541.128906 C 419.691406 541.128906 540.632812 420.1875 540.632812 271 C 540.632812 121.8125 419.691406 0.871094 270.503906 0.871094 Z M 270.503906 0.871094"></path></clipPath><clipPath id="0ac554d729"><rect height="542" y="0" width="541" x="0"></rect></clipPath><clipPath id="3bf040517f"><path clip-rule="nonzero" d="M 451.0625 104.871094 L 991.324219 104.871094 L 991.324219 645.128906 L 451.0625 645.128906 Z M 451.0625 104.871094"></path></clipPath><clipPath id="3c7427f80d"><path clip-rule="nonzero" d="M 721.195312 104.871094 C 572.003906 104.871094 451.0625 225.8125 451.0625 375 C 451.0625 524.1875 572.003906 645.128906 721.195312 645.128906 C 870.382812 645.128906 991.324219 524.1875 991.324219 375 C 991.324219 225.8125 870.382812 104.871094 721.195312 104.871094 Z M 721.195312 104.871094"></path></clipPath><clipPath id="be69786133"><path clip-rule="nonzero" d="M 0.0625 0.871094 L 540.324219 0.871094 L 540.324219 541.128906 L 0.0625 541.128906 Z M 0.0625 0.871094"></path></clipPath><clipPath id="e443bbe556"><path clip-rule="nonzero" d="M 270.195312 0.871094 C 121.003906 0.871094 0.0625 121.8125 0.0625 271 C 0.0625 420.1875 121.003906 541.128906 270.195312 541.128906 C 419.382812 541.128906 540.324219 420.1875 540.324219 271 C 540.324219 121.8125 419.382812 0.871094 270.195312 0.871094 Z M 270.195312 0.871094"></path></clipPath><clipPath id="9a76e4d3d8"><rect height="542" y="0" width="541" x="0"></rect></clipPath></defs><g clip-path="url(#2aebc32a81)"><g clip-path="url(#2d1e488510)"><g transform="matrix(1, 0, 0, 1, 845, 104)"><g clip-path="url(#73a8c6881f)"><g clip-path="url(#086e4a6f67)"><g clip-path="url(#f8d0c07fd7)"><path fill-rule="nonzero" fill-opacity="1" d="M 0.367188 0.871094 L 540.628906 0.871094 L 540.628906 541.128906 L 0.367188 541.128906 Z M 0.367188 0.871094" fill="#bb7575"></path></g></g></g></g></g></g><g clip-path="url(#eebea73ec9)"><g clip-path="url(#ca22ac33ac)"><g transform="matrix(1, 0, 0, 1, 114, 104)"><g clip-path="url(#0ac554d729)"><g clip-path="url(#7703fe67b7)"><g clip-path="url(#572e0cd0ab)"><path fill-rule="nonzero" fill-opacity="1" d="M 0.371094 0.871094 L 540.632812 0.871094 L 540.632812 541.128906 L 0.371094 541.128906 Z M 0.371094 0.871094" fill="#bb7575"></path></g></g></g></g></g></g><g clip-path="url(#3bf040517f)"><g clip-path="url(#3c7427f80d)"><g transform="matrix(1, 0, 0, 1, 451, 104)"><g clip-path="url(#9a76e4d3d8)"><g clip-path="url(#be69786133)"><g clip-path="url(#e443bbe556)"><path fill-rule="nonzero" fill-opacity="1" d="M 0.0625 0.871094 L 540.324219 0.871094 L 540.324219 541.128906 L 0.0625 541.128906 Z M 0.0625 0.871094" fill="#bb7575"></path></g></g></g></g></g></g><g fill-opacity="1" fill="#ffffff"><g transform="translate(346.782499, 437.624999)"><g><path d="M 245.703125 0 L 169.34375 0 L 109.1875 -46.875 L 74.421875 -23.140625 L 74.421875 0 L 15.625 0 L 15.625 -140.140625 L 74.421875 -140.140625 L 74.421875 -75.296875 L 168.75 -140.140625 L 245.703125 -140.140625 L 145.3125 -71.578125 Z M 245.703125 0"></path></g></g></g><g fill-opacity="1" fill="#ffffff"><g transform="translate(581.344275, 437.624999)"><g></g></g></g><g fill-opacity="1" fill="#ffffff"><g transform="translate(618.352383, 437.624999)"><g><path d="M 282.03125 0 L 223.25 0 L 223.25 -89.359375 L 170.703125 0 L 126.859375 0 L 74.421875 -89.359375 L 74.421875 0 L 15.625 0 L 15.625 -140.140625 L 85.453125 -140.140625 L 148.828125 -40.046875 L 212.109375 -140.140625 L 282.03125 -140.140625 Z M 282.03125 0"></path></g></g></g><g fill-opacity="1" fill="#ffffff"><g transform="translate(903.401164, 437.624999)"><g><path d="M 184.375 0 L 15.625 0 L 15.625 -140.140625 L 176.65625 -140.140625 L 176.65625 -105.46875 L 74.421875 -105.46875 L 74.421875 -83.5 L 160.84375 -83.5 L 160.84375 -56.546875 L 74.421875 -56.546875 L 74.421875 -34.671875 L 184.375 -34.671875 Z M 184.375 0"></path></g></g></g></svg>